<svg id="Layer_1" data-name="Layer 1" xmlns="http://www.w3.org/2000/svg" viewBox="0 0 522.67 266.72"><defs><style>.cls-1{fill:none;stroke:#000;stroke-miterlimit:10;stroke-width:7px;}.cls-2{fill:#04cb05;}.cls-3{fill:#ffde00;}.cls-4{fill:#fff;}</style></defs><title>Soma Connect</title><path class="cls-1" d="M81.37,82.13H67.76A22.17,22.17,0,0,0,45.6,104.3v78.91A22.77,22.77,0,0,0,68.13,206l144.31,1.52a22.77,22.77,0,0,0,23-22.77V155.51"/><path d="M164.59,242.63H114.16a7,7,0,0,1-6.35-9.82l2.26-5a7,7,0,0,1,6.35-4.1h45.91a6.94,6.94,0,0,1,6.34,4.1l2.26,5A7,7,0,0,1,164.59,242.63Z"/><path class="cls-2" d="M172.6,141.64c1.06-2.77,2-5.2,2.91-7.64,1.25-3.3.47-4.46-2.93-4.46-1.7,0-3.4-.09-5.1-.13a42.77,42.77,0,0,1,1.44-5.42c6-14.62,12.14-29.18,18.05-43.84,2.09-5.21,3.76-10.6,5.41-16,2.14-7,6.11-10.79,13.26-11.19,19.55-1.08,37.19,4.71,52.94,16.05,6.67,4.8,9.46,16.22,6.24,24.24C258,110.17,251,127,244,143.74c-2,4.74-3.89,5.41-9.2,3.26a98.41,98.41,0,0,0-39-7c-6.68.1-13.34,1.09-20,1.65C174.86,141.71,173.94,141.64,172.6,141.64Z"/><path class="cls-2" d="M156.52,126.24l-7.08-7.95c-2,4-3.73,7.45-5.73,11.43-1-1.32-1.8-2.28-2.53-3.28-12.24-16.66-27.4-29.75-46.43-38.16-3.64-1.61-4.27-3.08-2.71-6.8,7.59-18.11,15.33-36.16,22.87-54.3,2.47-5.94,6.84-8.65,13-9,18.24-1,33.72,5.73,47.49,17.11,2.21,1.83,4.21,3.92,6.29,5.91,5.37,5.1,6.12,10.83,3.16,17.62-7.08,16.24-13.86,32.62-20.74,49C161.69,113.63,159.3,119.5,156.52,126.24Z"/><rect class="cls-3" x="61.19" y="117.45" width="19.26" height="19.26" rx="4.59"/><rect class="cls-3" x="94.55" y="141.85" width="12.63" height="12.63" rx="4.59"/><path d="M409.61,131.21c3.82-9.83,7.41-18.72,10.72-27.71,1.09-3,2.43-4.48,5.88-4.11a110.32,110.32,0,0,0,11.23.08v51.36h-11V117.12l-.85-.19c-.82,2-1.66,4.06-2.46,6.1-3.33,8.47-6.69,16.94-10,25.44-.66,1.71-1.34,2.72-3.51,2.73s-3.07-1-3.79-2.84c-4.05-10.49-8.2-21-13.05-31.38v33.89H381.67V99.51c4.68,0,9.45-.11,14.19.12.76,0,1.73,1.44,2.13,2.41,3.35,8.33,6.6,16.72,9.88,25.08C408.3,128.2,408.78,129.26,409.61,131.21Z"/><path d="M346.71,152.07c-15.81,0-27.18-11.3-27.1-26.91.09-15.42,11.48-26.63,27.07-26.64,15.92,0,27.16,11.07,27.16,26.79S362.7,152.07,346.71,152.07Zm15.59-26.72c0-10.06-6.3-16.89-15.59-16.87-9.13,0-15.75,7.22-15.61,17s6.72,16.77,15.55,16.81C355.77,142.34,362.3,135.28,362.3,125.35Z"/><path d="M442.23,151.11c2.57-6.65,4.88-12.67,7.2-18.68,3.89-10.06,7.86-20.08,11.61-30.19.82-2.19,1.92-3,4.19-2.81,3.57.25,7.94-1,10.53.69,2.4,1.53,3,6,4.22,9.23q7.27,18.77,14.46,37.57c.47,1.22.88,2.45,1.42,4H483.8c-1.07-2.78-2.14-5.56-3.28-8.54-7,0-13.94-.08-20.89.1a3.88,3.88,0,0,0-2.61,2.14c-2.79,6.5-2.73,6.53-9.81,6.53Zm26.93-41.74-8.36,23.32h16.68Z"/><path d="M313.82,106.1,307.75,114c-4.63-3.65-9.61-5.8-15.36-5.51a8.52,8.52,0,0,0-4.43,1.1,6,6,0,0,0-2.35,4,4.58,4.58,0,0,0,2.44,3.42c3.07,1.28,6.38,2,9.57,3a88.81,88.81,0,0,1,8.85,2.89c5.3,2.25,8.41,6.23,8.53,12.18.12,6.28-2.31,11.21-7.9,14.29-9.9,5.43-26.5,2.88-34.77-5.54l5.37-7.52c4.36,2,8.3,4.35,12.56,5.49a18.58,18.58,0,0,0,9.46-.44,6.35,6.35,0,0,0,3.62-4.56c.12-1.38-1.8-3.63-3.34-4.33-3.13-1.42-6.62-2-9.94-3a56.39,56.39,0,0,1-8.13-2.77c-10-4.87-10.75-18.09-1.49-24.33C289.39,96.28,305.33,98,313.82,106.1Z"/><path d="M351.24,186.06v21.22h-6.73V175.73c4.48-1.18,7.57-.22,10.06,3.89,3.27,5.4,7.28,10.35,11.52,16.25V175.64h6.81v31.22c-4.7,1.61-6,1.25-8.67-2.56C360.09,198.5,356,192.68,351.24,186.06Z"/><path d="M401.57,194.89V175.51h6.61v31.62c-3.95,1.06-6.78.43-9.13-3.33-3.65-5.84-7.92-11.29-12.49-17.7v21.16h-6.74V175.74c4.45-1.26,7.52-.21,10,3.86,3.31,5.39,7.3,10.36,11,15.51Z"/><path d="M322.64,208c-9.88,0-16.9-6.91-16.88-16.64s7.2-16.67,17-16.61c9.57.05,16.64,7,16.76,16.52S332.42,208,322.64,208Zm-9.8-16.69c0,6.27,3.92,10.63,9.66,10.69s9.88-4.38,9.91-10.49-3.93-10.56-9.72-10.62S312.88,185,312.84,191.32Z"/><path d="M415.21,175.51h22.26v5.67H421.94V188H437.3v6H421.92v7.54H437.5v5.83H415.21Z"/><path d="M466.33,185.44c-4.73-5.3-10.47-6-14.7-1.95a11.23,11.23,0,0,0-.25,15.57c4.31,4.37,9.71,3.9,14.95-1.54l5.29,2.46c-3.07,6.33-9.68,9.28-17,7.77-7.66-1.57-12.88-7.78-13.27-15.81a16.3,16.3,0,0,1,11.57-16.38c7.67-2.35,14.57.13,18.88,7Z"/><path d="M302.86,182.65l-5.32,2.69c-5.75-5.43-11.18-5.85-15.37-1.29a11.38,11.38,0,0,0,.55,15.32c4.3,4,9.67,3.46,14.69-1.89l5.26,2.5c-2.91,6.24-9.48,9.21-16.88,7.79a16.08,16.08,0,0,1-13.25-15.31c-.41-8.14,4.1-14.73,11.6-17C291.8,173.24,298.77,175.82,302.86,182.65Z"/><path d="M500.06,175.63v5.55h-9.15v26.09h-7V181.54h-9.32v-5.91Z"/><path class="cls-4" d="M362.3,125.35c0,9.93-6.53,17-15.65,16.94-8.83,0-15.41-7.15-15.55-16.81s6.48-17,15.61-17C356,108.46,362.3,115.29,362.3,125.35Z"/><path class="cls-4" d="M469.16,109.37l8.32,23.32H460.8Z"/><path class="cls-4" d="M312.84,191.32c0-6.29,4-10.49,9.85-10.42s9.75,4.4,9.72,10.62-4.22,10.54-9.91,10.49S312.81,197.59,312.84,191.32Z"/></svg>